# Blender v2.79 (sub 0) OBJ File: 'CandideNoKeys.blend'
# www.blender.org
mtllib Candide.mtl
o Candide.002
v 146 130 20
v 105 215 20
v 100 150 70
v 40 190 90
v 50 245 10
v 0 250 40
v 0 130 120
v 140 40 20
v 120 70 70
v 90 92 110
v 30 70 120
v 0 70 130
v 90 80 110
v 108 40 80
v 70 60 100
v 40 40 100
v 0 40 120
v 0 -50 180
v 30 -40 110
v 70 30 100
v 50 -60 104
v 120 -40 50
v 150 -30 20
v 70 34 103
v 70 53 104
v 110 -190 60
v 70 -110 80
v 40 -180 100
v 0 -210 140
v 0 -70 130
v 0 -160 120
v 0 -120 138
#v 0 -100 137
v 0 -99.5 137
v 10 -90 136
v -146 130 20
v -100 150 70
v -105 215 20
v -40 190 90
v -50 245 10
v -140 40 20
v -120 70 70
v -90 92 110
v -30 70 120
v -90 80 110
v -108 40 80
v -70 60 100
v -40 40 100
v -30 -40 110
v -70 30 100
v -50 -60 104
v -120 -40 50
v -150 -30 20
v -70 34 103
v -70 53 104
v -110 -190 60
v -40 -180 100
v -70 -110 80
v -10 -90 136
v 0 -99.5 137
v 0 -100 137
vt 0.000000 0.000000
vt 0.000000 0.000000
vt 0.000000 0.000000
vt 0.000000 0.000000
vt 0.000000 0.000000
vt 0.000000 0.000000
vt 0.000000 0.000000
vt 0.000000 0.000000
vt 0.000000 0.000000
vt 0.000000 0.000000
vt 0.000000 0.000000
vt 0.000000 0.000000
vt 0.000000 0.000000
vt 0.000000 0.000000
vt 0.000000 0.000000
vt 0.000000 0.000000
vt 0.000000 0.000000
vt 0.000000 0.000000
vt 0.000000 0.000000
vt 0.000000 0.000000
vt 0.000000 0.000000
vt 0.000000 0.000000
vt 0.000000 0.000000
vt 0.000000 0.000000
vt 0.000000 0.000000
vt 0.000000 0.000000
vt 0.000000 0.000000
vt 0.000000 0.000000
vt 0.000000 0.000000
vt 0.000000 0.000000
vt 0.000000 0.000000
vt 0.000000 0.000000
vt 0.000000 0.000000
vt 0.000000 0.000000
vt 0.000000 0.000000
vt 0.000000 0.000000
vt 0.000000 0.000000
vt 0.000000 0.000000
vt 0.000000 0.000000
vt 0.000000 0.000000
vt 0.000000 0.000000
vt 0.000000 0.000000
vt 0.000000 0.000000
vt 0.000000 0.000000
vt 0.000000 0.000000
vt 0.000000 0.000000
vt 0.000000 0.000000
vt 0.000000 0.000000
vt 0.000000 0.000000
vt 0.000000 0.000000
vt 0.000000 0.000000
vt 0.000000 0.000000
vt 0.000000 0.000000
vt 0.000000 0.000000
vt 0.000000 0.000000
vt 0.000000 0.000000
vt 0.000000 0.000000
vt 0.000000 0.000000
vt 0.000000 0.000000
vt 0.664792 0.717711
vt 0.664792 0.835146
vt 0.479369 0.754796
vt 0.899661 0.754796
vt 0.157130 0.716300
vt 0.357899 0.756454
vt 0.157130 0.843453
vt -0.097177 0.756454
vt 0.000000 0.000000
vn 0.7535 0.3635 0.5478
vn 0.5492 0.4826 0.6823
vn 0.3139 0.7636 0.5642
vn 0.4041 0.7294 0.5520
vn 0.4128 0.1720 0.8944
vn 0.9136 -0.0609 0.4020
vn 0.7592 0.1898 0.6226
vn 0.8340 0.2085 0.5108
vn 0.3030 0.5051 0.8081
vn 0.1391 0.0696 0.9878
vn 0.3123 0.1562 0.9370
vn 0.8659 -0.1924 0.4618
vn 0.4996 0.0874 0.8618
vn 0.4576 -0.7191 0.5230
vn 0.2281 -0.6082 0.7603
vn 0.3041 -0.4562 0.8363
vn 0.4082 -0.4082 0.8165
vn 0.3015 -0.3015 0.9045
vn 0.8690 0.2744 0.4117
vn 0.4465 0.0558 0.8930
vn 0.0397 0.1191 0.9921
vn 0.2712 -0.0175 0.9624
vn 0.4785 -0.0674 0.8755
vn 0.6330 -0.1868 0.7513
vn 0.8815 -0.0441 0.4701
vn 0.6871 0.0982 0.7199
vn -0.1961 -0.5883 0.7845
vn -0.3140 0.4710 0.8243
vn 0.5010 -0.5193 0.6923
vn 0.5833 0.4030 0.7052
vn 0.4994 0.0333 0.8657
vn 0.4877 0.0257 0.8727
vn 0.7071 -0.0000 0.7071
vn 0.6275 -0.1184 0.7696
vn 0.4998 0.3748 0.7809
vn 0.7074 0.5911 0.3876
vn 0.3543 -0.8683 0.3473
vn 0.5449 0.3114 0.7785
vn 0.4673 0.0519 0.8826
vn 0.6314 -0.3182 0.7072
vn -0.1288 0.2253 0.9657
vn 0.3492 0.4251 0.8351
vn 0.6630 -0.0914 0.7430
vn -0.7535 0.3635 0.5478
vn -0.5492 0.4826 0.6823
vn -0.3139 0.7636 0.5642
vn -0.4041 0.7294 0.5520
vn -0.4128 0.1720 0.8944
vn -0.9136 -0.0609 0.4020
vn -0.7592 0.1898 0.6226
vn -0.8340 0.2085 0.5108
vn -0.3030 0.5051 0.8081
vn -0.1391 0.0696 0.9878
vn -0.3123 0.1562 0.9370
vn -0.8659 -0.1924 0.4618
vn -0.4996 0.0874 0.8618
vn -0.4576 -0.7191 0.5230
vn -0.2281 -0.6082 0.7603
vn -0.3041 -0.4562 0.8363
vn -0.4082 -0.4082 0.8165
vn -0.3015 -0.3015 0.9045
vn -0.8690 0.2744 0.4117
vn -0.4465 0.0558 0.8930
vn -0.0397 0.1191 0.9921
vn -0.2712 -0.0175 0.9624
vn -0.4785 -0.0674 0.8755
vn -0.6330 -0.1868 0.7513
vn -0.8815 -0.0441 0.4701
vn -0.6871 0.0982 0.7199
vn 0.1961 -0.5883 0.7845
vn 0.3140 0.4710 0.8243
vn -0.5010 -0.5193 0.6923
vn -0.5833 0.4030 0.7052
vn -0.4994 0.0333 0.8657
vn -0.4877 0.0257 0.8727
vn -0.7071 -0.0000 0.7071
vn -0.6275 -0.1184 0.7696
vn -0.4998 0.3748 0.7809
vn -0.7074 0.5911 0.3876
vn -0.3543 -0.8683 0.3473
vn -0.5449 0.3114 0.7785
vn -0.4673 0.0519 0.8826
vn -0.6314 -0.3182 0.7072
vn 0.1288 0.2253 0.9657
vn -0.3492 0.4251 0.8351
vn -0.6630 -0.0914 0.7430
vn 0.0000 0.4472 0.8944
vn 0.0000 0.6402 0.7682
vn -0.1097 -0.0522 0.9926
vn 0.5225 -0.0448 0.8515
vn 0.1097 -0.0522 0.9926
vn -0.5225 -0.0448 0.8515
vn 0.8000 0.0000 0.6000
vn 0.1644 0.0000 0.9864
vn 0.6343 0.0386 0.7722
vn 0.5237 -0.4515 0.7224
vn -0.8000 0.0000 0.6000
vn -0.1644 0.0000 0.9864
vn -0.6343 0.0386 0.7722
vn -0.5237 -0.4515 0.7224
usemtl Basic
s 1
f 1/1/1 2/2/1 3/3/1
f 3/3/2 2/2/2 4/4/2
f 4/4/3 2/2/3 5/5/3
f 4/4/4 5/5/4 6/6/4
f 7/7/5 3/3/5 4/4/5
f 8/8/6 1/1/6 9/9/6
f 9/9/7 1/1/7 3/3/7
f 9/9/8 3/3/8 10/10/8
f 10/10/9 3/3/9 7/7/9
f 10/10/10 7/7/10 11/11/10
f 12/12/11 11/11/11 7/7/11
f 8/8/12 9/9/12 14/13/12
f 14/13/13 9/9/13 15/14/13
f 9/9/14 13/15/14 15/14/14
f 15/14/15 13/15/15 11/11/15
f 15/14/16 11/11/16 16/16/16
f 16/16/17 11/11/17 17/17/17
f 11/11/18 12/12/18 17/17/18
f 17/17/19 18/18/19 19/19/19
f 19/19/20 16/16/20 17/17/20
f 19/19/21 20/20/21 16/16/21
f 21/21/22 20/20/22 19/19/22
f 21/21/23 14/13/23 20/20/23
f 21/21/24 22/22/24 14/13/24
f 22/22/25 8/8/25 14/13/25
f 22/22/26 23/23/26 8/8/26
f 20/20/27 24/24/27 16/16/27
f 25/25/28 15/14/28 16/16/28
f 20/20/29 14/13/29 24/24/29
f 25/25/30 14/13/30 15/14/30
f 26/26/31 27/27/31 28/28/31
f 26/26/32 22/22/32 27/27/32
f 26/26/33 23/23/33 22/22/33
f 27/27/34 22/22/34 21/21/34
f 26/26/35 28/28/35 29/29/35
f 21/21/36 19/19/36 18/18/36
f 21/21/37 18/18/37 30/30/37
f 29/29/38 28/28/38 31/31/38
f 28/28/39 27/27/39 31/31/39
f 31/31/40 27/27/40 32/32/40
f 33/33/41 34/34/41 30/30/41
f 34/34/42 21/21/42 30/30/42
f 34/34/43 27/27/43 21/21/43
f 35/35/44 36/36/44 37/37/44
f 36/36/45 38/38/45 37/37/45
f 38/38/46 39/39/46 37/37/46
f 38/38/47 6/6/47 39/39/47
f 7/7/48 38/38/48 36/36/48
f 40/40/49 41/41/49 35/35/49
f 41/41/50 36/36/50 35/35/50
f 41/41/51 42/42/51 36/36/51
f 42/42/52 7/7/52 36/36/52
f 42/42/53 43/43/53 7/7/53
f 12/12/54 7/7/54 43/43/54
f 40/40/55 45/44/55 41/41/55
f 45/44/56 46/45/56 41/41/56
f 41/41/57 46/45/57 44/46/57
f 46/45/58 43/43/58 44/46/58
f 46/45/59 47/47/59 43/43/59
f 47/47/60 17/17/60 43/43/60
f 43/43/61 17/17/61 12/12/61
f 17/17/62 48/48/62 18/18/62
f 48/48/63 17/17/63 47/47/63
f 48/48/64 47/47/64 49/49/64
f 50/50/65 48/48/65 49/49/65
f 50/50/66 49/49/66 45/44/66
f 50/50/67 45/44/67 51/51/67
f 51/51/68 45/44/68 40/40/68
f 51/51/69 40/40/69 52/52/69
f 49/49/70 47/47/70 53/53/70
f 54/54/71 47/47/71 46/45/71
f 49/49/72 53/53/72 45/44/72
f 54/54/73 46/45/73 45/44/73
f 55/55/74 56/56/74 57/57/74
f 55/55/75 57/57/75 51/51/75
f 55/55/76 51/51/76 52/52/76
f 57/57/77 50/50/77 51/51/77
f 55/55/78 29/29/78 56/56/78
f 50/50/79 18/18/79 48/48/79
f 50/50/80 30/30/80 18/18/80
f 29/29/81 31/31/81 56/56/81
f 56/56/82 31/31/82 57/57/82
f 31/31/83 32/32/83 57/57/83
f 59/58/84 30/30/84 58/59/84
f 58/59/85 30/30/85 50/50/85
f 58/59/86 50/50/86 57/57/86
f 7/7/87 4/4/87 38/38/87
f 6/6/88 38/38/88 4/4/88
usemtl Eyes
f 24/60/89 25/61/89 16/62/89
f 24/60/90 14/63/90 25/61/90
f 53/64/91 47/65/91 54/66/91
f 53/64/92 54/66/92 45/67/92
usemtl Highlights
f 9/9/93 10/10/93 13/15/93
f 13/15/94 10/10/94 11/11/94
f 32/32/95 27/27/95 60/68/95
f 27/27/96 34/34/96 33/33/96
f 41/41/97 44/46/97 42/42/97
f 44/46/98 43/43/98 42/42/98
f 32/32/99 60/68/99 57/57/99
f 57/57/100 59/58/100 58/59/100
