# OBJ Exporter For Unity
# GIM Research Group. Universidad Militar Nueva Granada.
# 2018
o Cosito
v -146 130 20
v -100 150 70
v -105 215 20
v -100 150 70
v -40 190 90
v -105 215 20
v -40 190 90
v -50 245 10
v -105 215 20
v -40 190 90
v 0 250 40
v -50 245 10
v 0 130 120
v -40 190 90
v -100 150 70
v -140 40 20
v -120 70 70
v -146 130 20
v -120 70 70
v -100 150 70
v -146 130 20
v -120 70 70
v -90 92 110
v -100 150 70
v -90 92 110
v 0 130 120
v -100 150 70
v -90 92 110
v -30 70 120
v 0 130 120
v 0 70 130
v 0 130 120
v -30 70 120
v -140 40 20
v -108 40 80
v -120 70 70
v -108 40 80
v -70 60 100
v -120 70 70
v -120 70 70
v -70 60 100
v -90 80 110
v -70 60 100
v -30 70 120
v -90 80 110
v -70 60 100
v -40 40 100
v -30 70 120
v -40 40 100
v 0 40 120
v -30 70 120
v -30 70 120
v 0 40 120
v 0 70 130
v 0 40 120
v -30 -40 110
v 0 -50 180
v -30 -40 110
v 0 40 120
v -40 40 100
v -30 -40 110
v -40 40 100
v -70 30 100
v -50 -60 104
v -30 -40 110
v -70 30 100
v -50 -60 104
v -70 30 100
v -108 40 80
v -50 -60 104
v -108 40 80
v -120 -40 50
v -120 -40 50
v -108 40 80
v -140 40 20
v -120 -40 50
v -140 40 20
v -150 -30 20
v -70 30 100
v -40 40 100
v -70 34 103
v -70 53 104
v -40 40 100
v -70 60 100
v -70 30 100
v -70 34 103
v -108 40 80
v -70 53 104
v -70 60 100
v -108 40 80
v -110 -190 60
v -40 -180 100
v -70 -110 80
v -120 -40 50
v -110 -190 60
v -120 -40 50
v -150 -30 20
v -70 -110 80
v -50 -60 104
v -120 -40 50
v -110 -190 60
v 0 -210 140
v -40 -180 100
v -50 -60 104
v 0 -50 180
v -30 -40 110
v -50 -60 104
v 0 -70 130
v 0 -50 180
v 0 -210 140
v 0 -160 120
v -40 -180 100
v -40 -180 100
v 0 -160 120
v -70 -110 80
v 0 -160 120
v 0 -120 138
v -70 -110 80
v 0 -99.5 137
v 0 -70 130
v -10 -90 136
v -10 -90 136
v 0 -70 130
v -50 -60 104
v -10 -90 136
v -50 -60 104
v -70 -110 80
v 146 130 20
v 105 215 20
v 100 150 70
v 100 150 70
v 105 215 20
v 40 190 90
v 40 190 90
v 105 215 20
v 50 245 10
v 40 190 90
v 50 245 10
v 0 250 40
v 0 130 120
v 100 150 70
v 40 190 90
v 140 40 20
v 146 130 20
v 120 70 70
v 120 70 70
v 146 130 20
v 100 150 70
v 120 70 70
v 100 150 70
v 90 92 110
v 90 92 110
v 100 150 70
v 0 130 120
v 90 92 110
v 0 130 120
v 30 70 120
v 0 70 130
v 30 70 120
v 0 130 120
v 140 40 20
v 120 70 70
v 108 40 80
v 108 40 80
v 120 70 70
v 70 60 100
v 120 70 70
v 90 80 110
v 70 60 100
v 70 60 100
v 90 80 110
v 30 70 120
v 70 60 100
v 30 70 120
v 40 40 100
v 40 40 100
v 30 70 120
v 0 40 120
v 30 70 120
v 0 70 130
v 0 40 120
v 0 40 120
v 0 -50 180
v 30 -40 110
v 30 -40 110
v 40 40 100
v 0 40 120
v 30 -40 110
v 70 30 100
v 40 40 100
v 50 -60 104
v 70 30 100
v 30 -40 110
v 50 -60 104
v 108 40 80
v 70 30 100
v 50 -60 104
v 120 -40 50
v 108 40 80
v 120 -40 50
v 140 40 20
v 108 40 80
v 120 -40 50
v 150 -30 20
v 140 40 20
v 70 30 100
v 70 34 103
v 40 40 100
v 70 53 104
v 70 60 100
v 40 40 100
v 70 30 100
v 108 40 80
v 70 34 103
v 70 53 104
v 108 40 80
v 70 60 100
v 110 -190 60
v 70 -110 80
v 40 -180 100
v 120 -40 50
v 110 -190 60
v 150 -30 20
v 120 -40 50
v 70 -110 80
v 120 -40 50
v 50 -60 104
v 110 -190 60
v 40 -180 100
v 0 -210 140
v 50 -60 104
v 30 -40 110
v 0 -50 180
v 50 -60 104
v 0 -50 180
v 0 -70 130
v 0 -210 140
v 40 -180 100
v 0 -160 120
v 40 -180 100
v 70 -110 80
v 0 -160 120
v 0 -160 120
v 70 -110 80
v 0 -120 138
v 10 -90 136
v 0 -99.5 137
v 0 -70 130
v 0 -99.5 137
v 50 -60 104
v 0 -70 130
v 0 -99.5 137
v 70 -110 80
v 50 -60 104
v 0 130 120
v 40 190 90
v -40 190 90
v 0 250 40
v -40 190 90
v 40 190 90
v -70 34 103
v -40 40 100
v -70 53 104
v -70 34 103
v -70 53 104
v -108 40 80
v 70 34 103
v 70 53 104
v 40 40 100
v 70 34 103
v 108 40 80
v 70 53 104
v -120 70 70
v -90 80 110
v -90 92 110
v -90 80 110
v -30 70 120
v -90 92 110
v 0 -120 138
v 0 -100 137
v -70 -110 80
v -70 -110 80
v 0 -99.5 137
v -10 -90 136
v 120 70 70
v 90 92 110
v 90 80 110
v 90 80 110
v 90 92 110
v 30 70 120
v 0 -120 138
v 70 -110 80
v 0 -100 137
v 70 -110 80
v 0 -99.5 137
v 10 -90 136
vt 0.817987 0.716803
vt 0.688199 0.728497
vt 0.724961 0.87788
vt 0.688199 0.728497
vt 0.573187 0.782363
vt 0.724961 0.87788
vt 0.573187 0.782363
vt 0.622102 0.953097
vt 0.724961 0.87788
vt 0.573187 0.782363
vt 0.507813 0.927443
vt 0.622102 0.953097
vt 0.507813 0.674712
vt 0.573187 0.782363
vt 0.688199 0.728497
vt 0.832838 0.544629
vt 0.73124 0.590734
vt 0.817987 0.716803
vt 0.73124 0.590734
vt 0.688199 0.728497
vt 0.817987 0.716803
vt 0.73124 0.590734
vt 0.649331 0.62273
vt 0.688199 0.728497
vt 0.649331 0.62273
vt 0.507813 0.674712
vt 0.688199 0.728497
vt 0.649331 0.62273
vt 0.559026 0.578063
vt 0.507813 0.674712
vt 0.507813 0.577716
vt 0.507813 0.674712
vt 0.559026 0.578063
vt 0.832838 0.544629
vt 0.710871 0.536218
vt 0.73124 0.590734
vt 0.710871 0.536218
vt 0.633879 0.562584
vt 0.73124 0.590734
vt 0.73124 0.590734
vt 0.633879 0.562584
vt 0.650724 0.604678
vt 0.633879 0.562584
vt 0.559026 0.578063
vt 0.650724 0.604678
vt 0.633879 0.562584
vt 0.587715 0.524657
vt 0.559026 0.578063
vt 0.587715 0.524657
vt 0.507813 0.521373
vt 0.559026 0.578063
vt 0.559026 0.578063
vt 0.507813 0.521373
vt 0.507813 0.577716
vt 0.507813 0.521373
vt 0.577862 0.397979
vt 0.507812 0.389619
vt 0.577862 0.397979
vt 0.507813 0.521373
vt 0.587715 0.524657
vt 0.577862 0.397979
vt 0.587715 0.524657
vt 0.639014 0.512243
vt 0.607343 0.348879
vt 0.577862 0.397979
vt 0.639014 0.512243
vt 0.607343 0.348879
vt 0.639014 0.512243
vt 0.710871 0.536218
vt 0.607343 0.348879
vt 0.710871 0.536218
vt 0.769967 0.393271
vt 0.769967 0.393271
vt 0.710871 0.536218
vt 0.832838 0.544629
vt 0.769967 0.393271
vt 0.832838 0.544629
vt 0.848217 0.41387
vt 0.639014 0.512243
vt 0.587715 0.524657
vt 0.637272 0.520559
vt 0.634278 0.548689
vt 0.587715 0.524657
vt 0.633879 0.562584
vt 0.639014 0.512243
vt 0.637272 0.520559
vt 0.710871 0.536218
vt 0.634278 0.548689
vt 0.633879 0.562584
vt 0.710871 0.536218
vt 0.751606 0.118004
vt 0.601862 0.124936
vt 0.66497 0.257011
vt 0.769967 0.393271
vt 0.751606 0.118004
vt 0.769967 0.393271
vt 0.848217 0.41387
vt 0.66497 0.257011
vt 0.607343 0.348879
vt 0.769967 0.393271
vt 0.751606 0.118004
vt 0.507812 0.055012
vt 0.601862 0.124936
vt 0.607343 0.348879
vt 0.507812 0.389619
vt 0.577862 0.397979
vt 0.607343 0.348879
vt 0.507812 0.334073
vt 0.507812 0.389619
vt 0.507812 0.055012
vt 0.507812 0.158512
vt 0.601862 0.124936
vt 0.601862 0.124936
vt 0.507812 0.158512
vt 0.66497 0.257011
vt 0.507812 0.158512
vt 0.507812 0.244222
vt 0.66497 0.257011
vt 0.507838 0.281133
vt 0.507812 0.334073
vt 0.523108 0.297855
vt 0.523108 0.297855
vt 0.507812 0.334073
vt 0.607343 0.348879
vt 0.523108 0.297855
vt 0.607343 0.348879
vt 0.66497 0.257011
vt 0.197638 0.716803
vt 0.290665 0.87788
vt 0.327426 0.728497
vt 0.327426 0.728497
vt 0.290665 0.87788
vt 0.442439 0.782363
vt 0.442439 0.782363
vt 0.290665 0.87788
vt 0.393523 0.953097
vt 0.442439 0.782363
vt 0.393523 0.953097
vt 0.507813 0.927443
vt 0.507813 0.674712
vt 0.327426 0.728497
vt 0.442439 0.782363
vt 0.182788 0.544629
vt 0.197638 0.716803
vt 0.284386 0.590734
vt 0.284386 0.590734
vt 0.197638 0.716803
vt 0.327426 0.728497
vt 0.284386 0.590734
vt 0.327426 0.728497
vt 0.366294 0.62273
vt 0.366294 0.62273
vt 0.327426 0.728497
vt 0.507813 0.674712
vt 0.366294 0.62273
vt 0.507813 0.674712
vt 0.456599 0.578063
vt 0.507813 0.577716
vt 0.456599 0.578063
vt 0.507813 0.674712
vt 0.182788 0.544629
vt 0.284386 0.590734
vt 0.304754 0.536218
vt 0.304754 0.536218
vt 0.284386 0.590734
vt 0.381746 0.562584
vt 0.284386 0.590734
vt 0.364901 0.604678
vt 0.381746 0.562584
vt 0.381746 0.562584
vt 0.364901 0.604678
vt 0.456599 0.578063
vt 0.381746 0.562584
vt 0.456599 0.578063
vt 0.427911 0.524657
vt 0.427911 0.524657
vt 0.456599 0.578063
vt 0.507813 0.521373
vt 0.456599 0.578063
vt 0.507813 0.577716
vt 0.507813 0.521373
vt 0.507813 0.521373
vt 0.507812 0.389619
vt 0.437763 0.397979
vt 0.437763 0.397979
vt 0.427911 0.524657
vt 0.507813 0.521373
vt 0.437763 0.397979
vt 0.376611 0.512243
vt 0.427911 0.524657
vt 0.408282 0.348879
vt 0.376611 0.512243
vt 0.437763 0.397979
vt 0.408282 0.348879
vt 0.304754 0.536218
vt 0.376611 0.512243
vt 0.408282 0.348879
vt 0.245658 0.393271
vt 0.304754 0.536218
vt 0.245658 0.393271
vt 0.182788 0.544629
vt 0.304754 0.536218
vt 0.245658 0.393271
vt 0.167408 0.41387
vt 0.182788 0.544629
vt 0.376611 0.512243
vt 0.378353 0.520559
vt 0.427911 0.524657
vt 0.381347 0.548689
vt 0.381746 0.562584
vt 0.427911 0.524657
vt 0.376611 0.512243
vt 0.304754 0.536218
vt 0.378353 0.520559
vt 0.381347 0.548689
vt 0.304754 0.536218
vt 0.381746 0.562584
vt 0.264019 0.118005
vt 0.350655 0.257011
vt 0.413763 0.124936
vt 0.245658 0.393271
vt 0.264019 0.118005
vt 0.167408 0.41387
vt 0.245658 0.393271
vt 0.350655 0.257011
vt 0.245658 0.393271
vt 0.408282 0.348879
vt 0.264019 0.118005
vt 0.413763 0.124936
vt 0.507812 0.055012
vt 0.408282 0.348879
vt 0.437763 0.397979
vt 0.507812 0.389619
vt 0.408282 0.348879
vt 0.507812 0.389619
vt 0.507812 0.334073
vt 0.507812 0.055012
vt 0.413763 0.124936
vt 0.507812 0.158512
vt 0.413763 0.124936
vt 0.350655 0.257011
vt 0.507812 0.158512
vt 0.507812 0.158512
vt 0.350655 0.257011
vt 0.507812 0.244222
vt 0.507787 0.281133
vt 0.492517 0.297855
vt 0.507812 0.334073
vt 0.492517 0.297855
vt 0.408282 0.348879
vt 0.507812 0.334073
vt 0.492517 0.297855
vt 0.350655 0.257011
vt 0.408282 0.348879
vt 0.507813 0.674712
vt 0.442439 0.782363
vt 0.573187 0.782363
vt 0.507813 0.927443
vt 0.573187 0.782363
vt 0.442439 0.782363
vt 0.637272 0.520559
vt 0.587715 0.524657
vt 0.634278 0.548689
vt 0.637272 0.520559
vt 0.634278 0.548689
vt 0.710871 0.536218
vt 0.378353 0.520559
vt 0.381347 0.548689
vt 0.427911 0.524657
vt 0.378353 0.520559
vt 0.304754 0.536218
vt 0.381347 0.548689
vt 0.73124 0.590734
vt 0.650724 0.604678
vt 0.649331 0.62273
vt 0.650724 0.604678
vt 0.559026 0.578063
vt 0.649331 0.62273
vt 0.507812 0.244222
vt 0.507812 0.278299
vt 0.66497 0.257011
vt 0.66497 0.257011
vt 0.507838 0.281133
vt 0.523108 0.297855
vt 0.284386 0.590734
vt 0.366294 0.62273
vt 0.364901 0.604678
vt 0.364901 0.604678
vt 0.366294 0.62273
vt 0.456599 0.578063
vt 0.507812 0.244222
vt 0.350655 0.257011
vt 0.507812 0.278299
vt 0.350655 0.257011
vt 0.492517 0.297855
vt 0.507787 0.281133
vn -0.7535077 0.3635038 0.5478057
vn -0.7535077 0.3635038 0.5478057
vn -0.7535077 0.3635038 0.5478057
vn -0.5491844 0.4825864 0.6822807
vn -0.5491844 0.4825864 0.6822807
vn -0.5491844 0.4825864 0.6822807
vn -0.3139095 0.763623 0.564217
vn -0.3139095 0.763623 0.564217
vn -0.3139095 0.763623 0.564217
vn -0.4040949 0.7293908 0.551993
vn -0.4040949 0.7293908 0.551993
vn -0.4040949 0.7293908 0.551993
vn -0.4128126 0.1720052 0.8944272
vn -0.4128126 0.1720052 0.8944272
vn -0.4128126 0.1720052 0.8944272
vn -0.9136102 -0.06090068 0.4020045
vn -0.9136102 -0.06090068 0.4020045
vn -0.9136102 -0.06090068 0.4020045
vn -0.759185 0.1897963 0.6225877
vn -0.759185 0.1897963 0.6225877
vn -0.759185 0.1897963 0.6225877
vn -0.834023 0.2085057 0.5108141
vn -0.834023 0.2085057 0.5108141
vn -0.834023 0.2085057 0.5108141
vn -0.303006 0.50511 0.8081159
vn -0.303006 0.50511 0.8081159
vn -0.303006 0.50511 0.8081159
vn -0.1391041 0.06960203 0.9878287
vn -0.1391041 0.06960203 0.9878287
vn -0.1391041 0.06960203 0.9878287
vn -0.3123158 0.1562079 0.9370474
vn -0.3123158 0.1562079 0.9370474
vn -0.3123158 0.1562079 0.9370474
vn -0.8658741 -0.1923942 0.4617862
vn -0.8658741 -0.1923942 0.4617862
vn -0.8658741 -0.1923942 0.4617862
vn -0.4996154 0.08740269 0.8618267
vn -0.4996154 0.08740269 0.8618267
vn -0.4996154 0.08740269 0.8618267
vn -0.4575928 -0.7190887 0.5229918
vn -0.4575928 -0.7190887 0.5229918
vn -0.4575928 -0.7190887 0.5229918
vn -0.2281008 -0.6082022 0.7603027
vn -0.2281008 -0.6082022 0.7603027
vn -0.2281008 -0.6082022 0.7603027
vn -0.3041011 -0.4562016 0.8363029
vn -0.3041011 -0.4562016 0.8363029
vn -0.3041011 -0.4562016 0.8363029
vn -0.408215 -0.408215 0.8165299
vn -0.408215 -0.408215 0.8165299
vn -0.408215 -0.408215 0.8165299
vn -0.3015113 -0.3015113 0.904534
vn -0.3015113 -0.3015113 0.904534
vn -0.3015113 -0.3015113 0.904534
vn -0.8690203 0.2744064 0.4117096
vn -0.8690203 0.2744064 0.4117096
vn -0.8690203 0.2744064 0.4117096
vn -0.4465168 0.0558021 0.8930336
vn -0.4465168 0.0558021 0.8930336
vn -0.4465168 0.0558021 0.8930336
vn -0.03969954 0.1190986 0.9920884
vn -0.03969954 0.1190986 0.9920884
vn -0.03969954 0.1190986 0.9920884
vn -0.2711906 -0.01749939 0.9623666
vn -0.2711906 -0.01749939 0.9623666
vn -0.2711906 -0.01749939 0.9623666
vn -0.4784988 -0.06739982 0.8754977
vn -0.4784988 -0.06739982 0.8754977
vn -0.4784988 -0.06739982 0.8754977
vn -0.632989 -0.1867967 0.7512869
vn -0.632989 -0.1867967 0.7512869
vn -0.632989 -0.1867967 0.7512869
vn -0.8815084 -0.04410042 0.4701045
vn -0.8815084 -0.04410042 0.4701045
vn -0.8815084 -0.04410042 0.4701045
vn -0.6870981 0.09819973 0.719898
vn -0.6870981 0.09819973 0.719898
vn -0.6870981 0.09819973 0.719898
vn 0.1961007 -0.5883023 0.784503
vn 0.1961007 -0.5883023 0.784503
vn 0.1961007 -0.5883023 0.784503
vn 0.3140146 0.4710218 0.8243381
vn 0.3140146 0.4710218 0.8243381
vn 0.3140146 0.4710218 0.8243381
vn -0.5010118 -0.5193123 0.6923164
vn -0.5010118 -0.5193123 0.6923164
vn -0.5010118 -0.5193123 0.6923164
vn -0.5833131 0.4030091 0.7052159
vn -0.5833131 0.4030091 0.7052159
vn -0.5833131 0.4030091 0.7052159
vn -0.4994135 0.03330091 0.8657235
vn -0.4994135 0.03330091 0.8657235
vn -0.4994135 0.03330091 0.8657235
vn -0.4876715 0.02569849 0.8726489
vn -0.7071068 0 0.7071068
vn -0.7071068 0 0.7071068
vn -0.7071068 0 0.7071068
vn -0.6274815 -0.1183965 0.7695773
vn -0.6274815 -0.1183965 0.7695773
vn -0.6274815 -0.1183965 0.7695773
vn -0.4997801 0.374785 0.7808688
vn -0.4997801 0.374785 0.7808688
vn -0.4997801 0.374785 0.7808688
vn -0.7073832 0.5910859 0.3875908
vn -0.7073832 0.5910859 0.3875908
vn -0.7073832 0.5910859 0.3875908
vn -0.3542839 -0.8682607 0.3472843
vn -0.3542839 -0.8682607 0.3472843
vn -0.3542839 -0.8682607 0.3472843
vn -0.5449141 0.311408 0.7785202
vn -0.5449141 0.311408 0.7785202
vn -0.5449141 0.311408 0.7785202
vn -0.4672893 0.05189881 0.8825799
vn -0.4672893 0.05189881 0.8825799
vn -0.4672893 0.05189881 0.8825799
vn -0.6313845 -0.3181922 0.7071826
vn -0.6313845 -0.3181922 0.7071826
vn -0.6313845 -0.3181922 0.7071826
vn 0.1288048 0.2253083 0.9657357
vn 0.1288048 0.2253083 0.9657357
vn 0.1288048 0.2253083 0.9657357
vn -0.3491926 0.4250909 0.8350822
vn -0.3491926 0.4250909 0.8350822
vn -0.3491926 0.4250909 0.8350822
vn -0.6630093 -0.09140128 0.7430104
vn -0.6630093 -0.09140128 0.7430104
vn -0.6630093 -0.09140128 0.7430104
vn 0.7535077 0.3635038 0.5478057
vn 0.7535077 0.3635038 0.5478057
vn 0.7535077 0.3635038 0.5478057
vn 0.5491844 0.4825864 0.6822807
vn 0.5491844 0.4825864 0.6822807
vn 0.5491844 0.4825864 0.6822807
vn 0.3139095 0.763623 0.564217
vn 0.3139095 0.763623 0.564217
vn 0.3139095 0.763623 0.564217
vn 0.4040949 0.7293908 0.551993
vn 0.4040949 0.7293908 0.551993
vn 0.4040949 0.7293908 0.551993
vn 0.4128126 0.1720052 0.8944272
vn 0.4128126 0.1720052 0.8944272
vn 0.4128126 0.1720052 0.8944272
vn 0.9136102 -0.06090068 0.4020045
vn 0.9136102 -0.06090068 0.4020045
vn 0.9136102 -0.06090068 0.4020045
vn 0.759185 0.1897963 0.6225877
vn 0.759185 0.1897963 0.6225877
vn 0.759185 0.1897963 0.6225877
vn 0.834023 0.2085057 0.5108141
vn 0.834023 0.2085057 0.5108141
vn 0.834023 0.2085057 0.5108141
vn 0.303006 0.50511 0.8081159
vn 0.303006 0.50511 0.8081159
vn 0.303006 0.50511 0.8081159
vn 0.1391041 0.06960203 0.9878287
vn 0.1391041 0.06960203 0.9878287
vn 0.1391041 0.06960203 0.9878287
vn 0.3123158 0.1562079 0.9370474
vn 0.3123158 0.1562079 0.9370474
vn 0.3123158 0.1562079 0.9370474
vn 0.8658741 -0.1923942 0.4617862
vn 0.8658741 -0.1923942 0.4617862
vn 0.8658741 -0.1923942 0.4617862
vn 0.4996154 0.08740269 0.8618267
vn 0.4996154 0.08740269 0.8618267
vn 0.4996154 0.08740269 0.8618267
vn 0.4575928 -0.7190887 0.5229918
vn 0.4575928 -0.7190887 0.5229918
vn 0.4575928 -0.7190887 0.5229918
vn 0.2281008 -0.6082022 0.7603027
vn 0.2281008 -0.6082022 0.7603027
vn 0.2281008 -0.6082022 0.7603027
vn 0.3041011 -0.4562016 0.8363029
vn 0.3041011 -0.4562016 0.8363029
vn 0.3041011 -0.4562016 0.8363029
vn 0.408215 -0.408215 0.8165299
vn 0.408215 -0.408215 0.8165299
vn 0.408215 -0.408215 0.8165299
vn 0.3015113 -0.3015113 0.904534
vn 0.3015113 -0.3015113 0.904534
vn 0.3015113 -0.3015113 0.904534
vn 0.8690203 0.2744064 0.4117096
vn 0.8690203 0.2744064 0.4117096
vn 0.8690203 0.2744064 0.4117096
vn 0.4465168 0.0558021 0.8930336
vn 0.4465168 0.0558021 0.8930336
vn 0.4465168 0.0558021 0.8930336
vn 0.03969954 0.1190986 0.9920884
vn 0.03969954 0.1190986 0.9920884
vn 0.03969954 0.1190986 0.9920884
vn 0.2711906 -0.01749939 0.9623666
vn 0.2711906 -0.01749939 0.9623666
vn 0.2711906 -0.01749939 0.9623666
vn 0.4784988 -0.06739982 0.8754977
vn 0.4784988 -0.06739982 0.8754977
vn 0.4784988 -0.06739982 0.8754977
vn 0.632989 -0.1867967 0.7512869
vn 0.632989 -0.1867967 0.7512869
vn 0.632989 -0.1867967 0.7512869
vn 0.8815084 -0.04410042 0.4701045
vn 0.8815084 -0.04410042 0.4701045
vn 0.8815084 -0.04410042 0.4701045
vn 0.6870981 0.09819973 0.719898
vn 0.6870981 0.09819973 0.719898
vn 0.6870981 0.09819973 0.719898
vn -0.1961007 -0.5883023 0.784503
vn -0.1961007 -0.5883023 0.784503
vn -0.1961007 -0.5883023 0.784503
vn -0.3140146 0.4710218 0.8243381
vn -0.3140146 0.4710218 0.8243381
vn -0.3140146 0.4710218 0.8243381
vn 0.5010118 -0.5193123 0.6923164
vn 0.5010118 -0.5193123 0.6923164
vn 0.5010118 -0.5193123 0.6923164
vn 0.5833131 0.4030091 0.7052159
vn 0.5833131 0.4030091 0.7052159
vn 0.5833131 0.4030091 0.7052159
vn 0.4994135 0.03330091 0.8657235
vn 0.4994135 0.03330091 0.8657235
vn 0.4994135 0.03330091 0.8657235
vn 0.4876715 0.02569849 0.8726489
vn 0.7071068 0 0.7071068
vn 0.7071068 0 0.7071068
vn 0.7071068 0 0.7071068
vn 0.6274815 -0.1183965 0.7695773
vn 0.6274815 -0.1183965 0.7695773
vn 0.6274815 -0.1183965 0.7695773
vn 0.4997801 0.374785 0.7808688
vn 0.4997801 0.374785 0.7808688
vn 0.4997801 0.374785 0.7808688
vn 0.7073832 0.5910859 0.3875908
vn 0.7073832 0.5910859 0.3875908
vn 0.7073832 0.5910859 0.3875908
vn 0.3542839 -0.8682607 0.3472843
vn 0.3542839 -0.8682607 0.3472843
vn 0.3542839 -0.8682607 0.3472843
vn 0.5449141 0.311408 0.7785202
vn 0.5449141 0.311408 0.7785202
vn 0.5449141 0.311408 0.7785202
vn 0.4672893 0.05189881 0.8825799
vn 0.4672893 0.05189881 0.8825799
vn 0.4672893 0.05189881 0.8825799
vn 0.6313845 -0.3181922 0.7071826
vn 0.6313845 -0.3181922 0.7071826
vn 0.6313845 -0.3181922 0.7071826
vn -0.1288048 0.2253083 0.9657357
vn -0.1288048 0.2253083 0.9657357
vn -0.1288048 0.2253083 0.9657357
vn 0.3491926 0.4250909 0.8350822
vn 0.3491926 0.4250909 0.8350822
vn 0.3491926 0.4250909 0.8350822
vn 0.6630093 -0.09140128 0.7430104
vn 0.6630093 -0.09140128 0.7430104
vn 0.6630093 -0.09140128 0.7430104
vn 0 0.4472136 0.8944272
vn 0 0.4472136 0.8944272
vn 0 0.4472136 0.8944272
vn 0 0.6402041 0.7682049
vn 0 0.6402041 0.7682049
vn 0 0.6402041 0.7682049
vn 0.1096992 -0.05219964 0.9925932
vn 0.1096992 -0.05219964 0.9925932
vn 0.1096992 -0.05219964 0.9925932
vn -0.5224829 -0.04479853 0.8514721
vn -0.5224829 -0.04479853 0.8514721
vn -0.5224829 -0.04479853 0.8514721
vn -0.1096992 -0.05219964 0.9925932
vn -0.1096992 -0.05219964 0.9925932
vn -0.1096992 -0.05219964 0.9925932
vn 0.5224829 -0.04479853 0.8514721
vn 0.5224829 -0.04479853 0.8514721
vn 0.5224829 -0.04479853 0.8514721
vn -0.8 0 0.6
vn -0.8 0 0.6
vn -0.8 0 0.6
vn -0.164399 0 0.9863939
vn -0.164399 0 0.9863939
vn -0.164399 0 0.9863939
vn -0.6342622 0.0385977 0.772154
vn -0.6342622 0.0385977 0.772154
vn -0.6342622 0.0385977 0.772154
vn -0.5237063 -0.4515055 0.7224088
vn -0.5237063 -0.4515055 0.7224088
vn -0.5237063 -0.4515055 0.7224088
vn 0.8 0 0.6
vn 0.8 0 0.6
vn 0.8 0 0.6
vn 0.164399 0 0.9863939
vn 0.164399 0 0.9863939
vn 0.164399 0 0.9863939
vn 0.6342622 0.0385977 0.772154
vn 0.6342622 0.0385977 0.772154
vn 0.6342622 0.0385977 0.772154
vn 0.5237063 -0.4515055 0.7224088
vn 0.5237063 -0.4515055 0.7224088
vn 0.5237063 -0.4515055 0.7224088
f  1/1/1  2/2/2  3/3/3  
f  4/4/4  5/5/5  6/6/6  
f  7/7/7  8/8/8  9/9/9  
f  10/10/10  11/11/11  12/12/12  
f  13/13/13  14/14/14  15/15/15  
f  16/16/16  17/17/17  18/18/18  
f  19/19/19  20/20/20  21/21/21  
f  22/22/22  23/23/23  24/24/24  
f  25/25/25  26/26/26  27/27/27  
f  28/28/28  29/29/29  30/30/30  
f  31/31/31  32/32/32  33/33/33  
f  34/34/34  35/35/35  36/36/36  
f  37/37/37  38/38/38  39/39/39  
f  40/40/40  41/41/41  42/42/42  
f  43/43/43  44/44/44  45/45/45  
f  46/46/46  47/47/47  48/48/48  
f  49/49/49  50/50/50  51/51/51  
f  52/52/52  53/53/53  54/54/54  
f  55/55/55  56/56/56  57/57/57  
f  58/58/58  59/59/59  60/60/60  
f  61/61/61  62/62/62  63/63/63  
f  64/64/64  65/65/65  66/66/66  
f  67/67/67  68/68/68  69/69/69  
f  70/70/70  71/71/71  72/72/72  
f  73/73/73  74/74/74  75/75/75  
f  76/76/76  77/77/77  78/78/78  
f  79/79/79  80/80/80  81/81/81  
f  82/82/82  83/83/83  84/84/84  
f  85/85/85  86/86/86  87/87/87  
f  88/88/88  89/89/89  90/90/90  
f  91/91/91  92/92/92  93/93/93  
f  91/91/91  93/93/93  94/94/94  
f  95/95/95  96/96/96  97/97/97  
f  98/98/98  99/99/99  100/100/100  
f  101/101/101  102/102/102  103/103/103  
f  104/104/104  105/105/105  106/106/106  
f  107/107/107  108/108/108  109/109/109  
f  110/110/110  111/111/111  112/112/112  
f  113/113/113  114/114/114  115/115/115  
f  116/116/116  117/117/117  118/118/118  
f  119/119/119  120/120/120  121/121/121  
f  122/122/122  123/123/123  124/124/124  
f  125/125/125  126/126/126  127/127/127  
f  128/128/128  129/129/129  130/130/130  
f  131/131/131  132/132/132  133/133/133  
f  134/134/134  135/135/135  136/136/136  
f  137/137/137  138/138/138  139/139/139  
f  140/140/140  141/141/141  142/142/142  
f  143/143/143  144/144/144  145/145/145  
f  146/146/146  147/147/147  148/148/148  
f  149/149/149  150/150/150  151/151/151  
f  152/152/152  153/153/153  154/154/154  
f  155/155/155  156/156/156  157/157/157  
f  158/158/158  159/159/159  160/160/160  
f  161/161/161  162/162/162  163/163/163  
f  164/164/164  165/165/165  166/166/166  
f  167/167/167  168/168/168  169/169/169  
f  170/170/170  171/171/171  172/172/172  
f  173/173/173  174/174/174  175/175/175  
f  176/176/176  177/177/177  178/178/178  
f  179/179/179  180/180/180  181/181/181  
f  182/182/182  183/183/183  184/184/184  
f  185/185/185  186/186/186  187/187/187  
f  188/188/188  189/189/189  190/190/190  
f  191/191/191  192/192/192  193/193/193  
f  194/194/194  195/195/195  196/196/196  
f  197/197/197  198/198/198  199/199/199  
f  200/200/200  201/201/201  202/202/202  
f  203/203/203  204/204/204  205/205/205  
f  206/206/206  207/207/207  208/208/208  
f  209/209/209  210/210/210  211/211/211  
f  212/212/212  213/213/213  214/214/214  
f  215/215/215  216/216/216  217/217/217  
f  218/218/218  219/219/219  220/220/220  
f  218/218/218  221/221/221  219/219/219  
f  222/222/222  223/223/223  224/224/224  
f  225/225/225  226/226/226  227/227/227  
f  228/228/228  229/229/229  230/230/230  
f  231/231/231  232/232/232  233/233/233  
f  234/234/234  235/235/235  236/236/236  
f  237/237/237  238/238/238  239/239/239  
f  240/240/240  241/241/241  242/242/242  
f  243/243/243  244/244/244  245/245/245  
f  246/246/246  247/247/247  248/248/248  
f  249/249/249  250/250/250  251/251/251  
f  252/252/252  253/253/253  254/254/254  
f  255/255/255  256/256/256  257/257/257  
f  258/258/258  259/259/259  260/260/260  
f  261/261/261  262/262/262  263/263/263  
f  264/264/264  265/265/265  266/266/266  
f  267/267/267  268/268/268  269/269/269  
f  270/270/270  271/271/271  272/272/272  
f  273/273/273  274/274/274  275/275/275  
f  276/276/276  277/277/277  278/278/278  
f  279/279/279  280/280/280  281/281/281  
f  282/282/282  283/283/283  284/284/284  
f  285/285/285  286/286/286  287/287/287  
f  288/288/288  289/289/289  290/290/290  
f  291/291/291  292/292/292  293/293/293  
f  294/294/294  295/295/295  296/296/296  
